/* XPM */
static char * bottom_right_active_xpm[] = {
"32 32 7 1",
" 	c None",
".	c #FF0000",
"+	c #800000",
"@	c #E0E0E0 s active_color_2",
"#	c #000000",
"$	c #C4C4FF s active_hilight_1",
"%	c #4C4CA5 s active_shadow_1",
"                            .+@ ",
"                             .@ ",
"                            +.@ ",
"                            +#. ",
"                            +#. ",
"                            +#@.",
"                             +@.",
"                             +@.",
"                             #+.",
"                             #+ ",
"                             #.+",
"                             .@+",
"                             .@+",
"                            .#@+",
"                            .#+ ",
"                            .#+ ",
"                            .+@ ",
"                             .@ ",
"                            +.@ ",
"                            +#. ",
"                            +#. ",
"                            +#@.",
"                             +@.",
"                             +@.",
"                             #+.",
"                             #+ ",
"                             #.+",
"                              @.",
"...       ++++ ....        .... ",
"###..###++###..+###..###++.$+$..",
"++%%%.++%%%..%%%++%%%.++%%.$+$. ",
"  ++++ ....       ++++ ... ....."};
