/* XPM */
static char * bottom_left_active_xpm[] = {
"32 32 6 1",
" 	c None",
".	c #800000",
"+	c #000000",
"@	c #FF0000",
"#	c #C4C4FF s active_hilight_1",
"$	c #4C4CA5 s active_shadow_1",
" .+@                            ",
" .+@                            ",
".#+@                            ",
".#@                             ",
".#@                             ",
".@+                             ",
" .+                             ",
"@.+                             ",
"@#.                             ",
"@#.                             ",
"@#+.                            ",
" @+.                            ",
" @+.                            ",
" #@.                            ",
" #@                             ",
" #.@                            ",
" .+@                            ",
" .+@                            ",
".#+@                            ",
".#@                             ",
".#@                             ",
".@+                             ",
" .+                             ",
"@.+                             ",
"@#.                             ",
"@#.                             ",
"@#+.                            ",
" @+.                            ",
" @+.      .... @@@@       .... @",
"  @@@+++..+++@@.+++@@+++..+++@@.",
"  .$$@..$$$@@$$$..$$$@..$$$@@$$$",
"   ... @@@@       .... @@@@     "};
