/* XPM */
static char * bottom_active_xpm[] = {
"16 4 5 1",
" 	c None",
".	c #FF0000",
"+	c #800000",
"@	c #000000",
"#	c #4C4CA5 s active_shadow_1",
"...       ++++ .",
"@@@..@@@++@@@..+",
"++###.++###..###",
"  ++++ ....     "};
