/* XPM */
static char * bottom_left_inactive_xpm[] = {
"32 32 3 1",
" 	c None",
".	c #800000",
"+	c #FF0000",
" . +                            ",
" . +                            ",
".  +                            ",
". +                             ",
". +                             ",
".+                              ",
" .                              ",
"+.                              ",
"+ .                             ",
"+ .                             ",
"+  .                            ",
" + .                            ",
" + .                            ",
"  +.                            ",
"  +                             ",
"  .+                            ",
" . +                            ",
" . +                            ",
".  +                            ",
". +                             ",
". +                             ",
".+                              ",
" .                              ",
"+.                              ",
"+ .                             ",
"+ .                             ",
"+  .                            ",
" + .                            ",
" + .      .... ++++       .... +",
"  +++   ..   ++.   ++   ..   ++.",
"  .  +..   ++   ..   +..   ++   ",
"   ... ++++       .... ++++     "};
