/* XPM */
static char * bottom_right_inactive_xpm[] = {
"32 32 4 1",
" 	c None",
".	c #FF0000",
"+	c #800000",
"@	c #C4C4FF s active_hilight_1",
"                            .+  ",
"                             .  ",
"                            +.  ",
"                            + . ",
"                            + . ",
"                            +  .",
"                             + .",
"                             + .",
"                              +.",
"                              + ",
"                              .+",
"                             . +",
"                             . +",
"                            .  +",
"                            . + ",
"                            . + ",
"                            .+  ",
"                             .  ",
"                            +.  ",
"                            + . ",
"                            + . ",
"                            +  .",
"                             + .",
"                             + .",
"                              +.",
"                              + ",
"                              .+",
"                               .",
"...       ++++ ....        .... ",
"   ..   ++   ..+   ..   ++.@+@..",
"++   .++   ..   ++   .++  .@+@. ",
"  ++++ ....       ++++ ... ....."};
