/* XPM */
static char * bottom_inactive_xpm[] = {
"16 4 3 1",
" 	c None",
".	c #FF0000",
"+	c #800000",
"...       ++++ .",
"   ..   ++   ..+",
"++   .++   ..   ",
"  ++++ ....     "};
