/* XPM */
static char * close_pressed_xpm[] = {
"17 24 6 1",
" 	c None",
".	c #FF0000",
"+	c #FFFFFF",
"@	c #000000",
"#	c #808080",
"$	c #800000",
"                 ",
"                 ",
"                 ",
"                 ",
"                 ",
"    .......      ",
"  ..+++++++..    ",
" .+++++++++++.   ",
" .++@+++++@++.   ",
".+++#@+++@#+++.  ",
".++++#@+@#++++.  ",
".+++++#@#+++++.  ",
".+++++@#@+++++.  ",
".++++@#+#@+++.$  ",
" .++@#+++#@+. @$ ",
" .+++++++++.$  @$",
"  ..++++++.@$    ",
"    ......$ @$   ",
"         @$ @$   ",
"         @$      ",
"                 ",
"                 ",
"                 ",
"                 "};
