/* XPM */
static char * close_inactive_xpm[] = {
"17 24 4 1",
" 	c None",
".	c #000000",
"+	c #800000",
"@	c #FF0000",
"                 ",
"                 ",
"                 ",
"                 ",
"                 ",
"                 ",
"                 ",
"                 ",
"           .+  .+",
"       .+ .+  .+ ",
"       .+ .+ .+  ",
"@@@    .+@@@@@@  ",
"@@@@@@@@@@@@     ",
" @@@@@@@@@       ",
"                 ",
"                 ",
"                 ",
"                 ",
"                 ",
"                 ",
"                 ",
"                 ",
"                 ",
"                 "};
