/* XPM */
static char * hide_active_xpm[] = {
"17 24 6 1",
" 	c None",
".	c #FF0000",
"+	c #FFFFFF",
"@	c #000000",
"#	c #E0E0E0",
"$	c #800000",
"                 ",
"                 ",
"                 ",
"                 ",
"                 ",
"    .......      ",
"  ..+++++++..    ",
" .+++++++++++.   ",
" .+++++++++++.   ",
".+++++++++++++.  ",
".+++++++++++++.  ",
".+++++++++++++.  ",
".++++@@@@@++++.  ",
".+++++####+++.$  ",
" .++++++++++. @$ ",
" .+++++++++.$  @$",
"  ..++++++.@$    ",
"    ......$ @$   ",
"         @$ @$   ",
"         @$      ",
"                 ",
"                 ",
"                 ",
"                 "};
