/* XPM */
static char * hide_pressed_xpm[] = {
"17 24 7 1",
" 	c None",
".	c #FF0000",
"+	c #FFFFFF",
"@	c #000000",
"#	c #808080",
"$	c #E0E0E0",
"%	c #800000",
"                 ",
"                 ",
"                 ",
"                 ",
"                 ",
"    .......      ",
"  ..+++++++..    ",
" .+++++++++++.   ",
" .+++++++++++.   ",
".+++++++++++++.  ",
".+++++++++++++.  ",
".+++@@@@@@++++.  ",
".++++#@@@#++++.  ",
".+++++$$$$+++.%  ",
" .++++++++++. @% ",
" .+++++++++.%  @%",
"  ..++++++.@%    ",
"    ......% @%   ",
"         @% @%   ",
"         @%      ",
"                 ",
"                 ",
"                 ",
"                 "};
