/* XPM */
static char * left_inactive_xpm[] = {
"4 16 3 1",
" 	c None",
".	c #800000",
"+	c #FF0000",
" . +",
" . +",
".  +",
". + ",
". + ",
".+  ",
" .  ",
"+.  ",
"+ . ",
"+ . ",
"+  .",
" + .",
" + .",
"  +.",
"  + ",
"  .+"};
