/* XPM */
static char * left_active_xpm[] = {
"4 16 5 1",
" 	c None",
".	c #800000",
"+	c #000000",
"@	c #FF0000",
"#	c #AAAAFF",
" .+@",
" .+@",
".#+@",
".#@ ",
".#@ ",
".@+ ",
" .+ ",
"@.+ ",
"@#. ",
"@#. ",
"@#+.",
" @+.",
" @+.",
" #@.",
" #@ ",
" #.@"};
