/* XPM */
static char * right_inactive_xpm[] = {
"4 16 3 1",
" 	c None",
".	c #FF0000",
"+	c #800000",
".+  ",
" .  ",
"+.  ",
"+ . ",
"+ . ",
"+  .",
" + .",
" + .",
"  +.",
"  + ",
"  .+",
" . +",
" . +",
".  +",
". + ",
". + "};
