/* XPM */
static char * right_active_xpm[] = {
"4 16 5 1",
" 	c None",
".	c #FF0000",
"+	c #800000",
"@	c #E0E0E0 s active_color_2",
"#	c #000000",
".+@ ",
" .@ ",
"+.@ ",
"+#. ",
"+#. ",
"+#@.",
" +@.",
" +@.",
" #+.",
" #+ ",
" #.+",
" .@+",
" .@+",
".#@+",
".#+ ",
".#+ "};
