/* XPM */
static char * title_3_inactive_xpm[] = {
"15 24 5 1",
" 	c None",
".	c #FF0000",
"+	c #800000",
"@	c #808080 s inactive_shadow_2",
"#	c #E0E0E0 s inactive_color_2",
"     .... ++++ ",
"   ..   ++.   +",
"+..   ++@@@..  ",
".@++++@@###@@..",
"@#@@@@#######@@",
"###############",
"###############",
"###############",
"###############",
"###############",
"###############",
"###############",
"###############",
"###############",
"###############",
"###############",
"###############",
"###############",
"###############",
"#####@@@@#@@@@#",
"###@@....@++++@",
"@@@..   ++.   +",
"+..   ++   ..  ",
". ++++       .."};
