/* XPM */
static char * title_5_active_xpm[] = {
"15 24 7 1",
" 	c None",
".	c #FF0000",
"+	c #800000",
"@	c #C4C4FF s active_hilight_1",
"#	c #AAAAFF s active_color_1",
"$	c #E0E0E0 s active_color_2",
"%	c #808080 s active_shadow_2",
"     .... ++++ ",
"   ..@@@++.###+",
"+..###++$$$..@@",
".$++++$$$$$$$..",
"$$$$$$$$$$$$$$$",
"$$$$$$$$$$$$$$$",
"$$$$$$$$$$$$$$$",
"$$$$$$$$$$$$$$$",
"$$$$$$$$$$$$$$$",
"$$$$$$$$$$$$$$$",
"$$$$$....$++++$",
"%%%..###++.###+",
"+..@@@++%%%..@@",
"%%++++%%%%%%%..",
"%%%%%%%%%%%%%%%",
"%%%%%%%%%%%%%%%",
"%%%%%%%%%%%%%%%",
"%%%%%%%%%%%%%%%",
"%%%%%%%%%%%%%%%",
"%%%%%%%%%%%%%%%",
"%%%%%....%++++%",
"%%%..###++.@@@+",
"+..@@@++   ..##",
". ++++       .."};
