/* XPM */
static char * title_3_active_xpm[] = {
"15 24 6 1",
" 	c None",
".	c #FF0000",
"+	c #800000",
"@	c #4C4CA5 s active_shadow_1",
"#	c #C4C4FF s active_hilight_1",
"$	c #AAAAFF s active_color_1",
"     .... ++++ ",
"   ..   ++.   +",
"+..   ++@@@..  ",
".@++++@@###@@..",
"@#@@@@#######@@",
"###############",
"###############",
"###############",
"###############",
"###############",
"###############",
"$$$$$$$$$$$$$$$",
"$$$$$$$$$$$$$$$",
"$$$$$$$$$$$$$$$",
"$$$$$$$$$$$$$$$",
"$$$$$$$$$$$$$$$",
"$$$$$$$$$$$$$$$",
"$$$$$$$$$$$$$$$",
"$$$$$$$$$$$$$$$",
"$$$$$@@@@$@@@@$",
"$$$@@....@++++@",
"@@@..   ++.   +",
"+..   ++   ..  ",
". ++++       .."};
