/* XPM */
static char * title_1_active_xpm[] = {
"15 24 4 1",
" 	c None",
".	c #FF0000",
"+	c #800000",
"@	c #4C4CA5 s active_shadow_1",
"               ",
"               ",
"               ",
"               ",
"               ",
"               ",
"               ",
"               ",
"               ",
"               ",
"               ",
"               ",
"               ",
"               ",
"               ",
"               ",
"               ",
"               ",
"               ",
"               ",
"     .... ++++ ",
"   ..   ++.   +",
"+..@@@++@@@..@@",
". ++++       .."};
