/* XPM */
static char * title_5_inactive_xpm[] = {
"15 24 3 1",
" 	c None",
".	c #FF0000",
"+	c #800000",
"     .... ++++ ",
"   ..   ++.   +",
"+..   ++   ..  ",
". ++++       ..",
"               ",
"               ",
"               ",
"               ",
"               ",
"               ",
"     .... ++++ ",
"   ..   ++.   +",
"+..   ++   ..  ",
"  ++++       ..",
"               ",
"               ",
"               ",
"               ",
"               ",
"               ",
"     .... ++++ ",
"   ..   ++.   +",
"+..   ++   ..  ",
". ++++       .."};
