/* XPM */
static char * title_2_active_xpm[] = {
"32 24 8 1",
" 	c None",
".	c #FF0000",
"+	c #800000",
"@	c #4C4CA5 s active_shadow_1",
"#	c #C4C4FF s active_hilight_1",
"$	c #000000",
"%	c #FFFFFF",
"&	c #AAAAFF s active_color_1",
"                     ....  ++++ ",
"                   ..@@@@..    +",
"                 ..@@#$%$@@..   ",
"                .@@%$#$%$#$@@...",
"               .@##$###$##$%$@@@",
"               .###$###$###$#$%$",
"              .@###########$#$%$",
"              .###############$#",
"            ..@###############$#",
"           .@@##################",
"           .####################",
"          .@###########&&&&&&&&&",
"          .########&&&&&&&&&&&&&",
"         .@#####&&&&&&&&&&&&&&&&",
"         .####&&&&&&&&&&&&&&&&&&",
"         .###&&&&&&&&$&&&$&&&&&&",
"         .##&&&&&&&&&$&&&$&&&$&&",
"        .@##&&&&&&&&$%$&$%$&&$&&",
"        .##&&&&&&&&&$%$&$%$&$%$&",
"       .@#@@@@&&&&&$%%%$%%@@@@$&",
"     ..@@@++++@@&&&$%%%$%@++++@@",
"   ..@@@++    ++@@$%%%%@++.   ++",
"+..@@@++        ++@@@@++   ..   ",
". ++++            ++++       .. "};
