/* XPM */
static char * top_left_inactive_xpm[] = {
"12 30 3 1",
" 	c None",
".	c #FF0000",
"+	c #800000",
"            ",
"            ",
"            ",
"            ",
"            ",
"            ",
"            ",
"            ",
"            ",
"            ",
"            ",
"            ",
"            ",
"            ",
"            ",
"            ",
"            ",
"            ",
"            ",
"            ",
" .... ++++  ",
".  +++.   ++",
". +    ..   ",
". +      ...",
".  +        ",
" . +        ",
" . +        ",
"  .+        ",
"  .         ",
"  +.        "};
