/* XPM */
static char * top_right_active_xpm[] = {
"19 30 8 1",
" 	c None",
".	c #FF0000",
"+	c #800000",
"@	c #AAAAFF s active_color_1",
"#	c #C4C4FF s active_hilight_1",
"$	c #E0E0E0 s active_color_2",
"%	c #000000",
"&	c #808080 s active_shadow_2",
"     .... ++++     ",
"   ..@@@++.@@@+    ",
"+..###++$$$..##..  ",
".$++++$$$$$$$..+%. ",
"$$$$$$$$$$$$$$$$+$.",
"$$$$$$$$$$$$$$$$+$.",
"$$$$$$$$$$$$$$$$%+.",
"$$$$$$$$$$$$$$$$%+ ",
"$$$$$$$$$$$$$$$$%.+",
"$$$$$$$$$$$$$$$$.$+",
"$$$$$....$++++$$.$+",
"&&&..###++.@@@+.%$+",
"+..###++&&&..##.++ ",
"&&++++&&&&&&&...%+ ",
"&&&&&&&&&&&&&&&.+$ ",
"&&&&&&&&&&&&&&&&.$ ",
"&&&&&&&&&&&&&&&+.$ ",
"&&&&&&&&&&&&&&&+%. ",
"&&&&&&&&&&&&&&&+%. ",
"&&&&&&&&&&&&&&&+%$.",
"&&&&&....&++++&&+$.",
"&&&..###++.@@@+++$.",
"+..@@@++   ..## %+.",
". ++++       .. %+ ",
"               ...+",
"                .$+",
"                .$+",
"               .%$+",
"               .%+ ",
"               .%+ "};
