/* XPM */
static char * top_right_inactive_xpm[] = {
"19 30 3 1",
" 	c None",
".	c #FF0000",
"+	c #800000",
"     .... ++++     ",
"   ..   ++.   +    ",
"+..   ++   ..  ..  ",
". ++++       ..+ . ",
"                + .",
"                + .",
"                 +.",
"                 + ",
"                 .+",
"                . +",
"     .... ++++  . +",
"   ..   ++.   +.  +",
"+..   ++   ..  .++ ",
"  ++++       ... + ",
"               .+  ",
"                .  ",
"               +.  ",
"               + . ",
"               + . ",
"               +  .",
"     .... ++++  + .",
"   ..   ++.   +++ .",
"+..   ++   ..    +.",
". ++++       ..  + ",
"               ...+",
"                . +",
"                . +",
"               .  +",
"               . + ",
"               . + "};
