/* XPM */
static char * top_left_active_xpm[] = {
"12 30 6 1",
" 	c None",
".	c #FF0000",
"+	c #800000",
"@	c #AAAAFF s active_color_1",
"#	c #4C4CA5 s active_shadow_1",
"$	c #000000",
"            ",
"            ",
"            ",
"            ",
"            ",
"            ",
"            ",
"            ",
"            ",
"            ",
"            ",
"            ",
"            ",
"            ",
"            ",
"            ",
"            ",
"            ",
"            ",
"            ",
" .... ++++  ",
".  +++.   ++",
".@+####..###",
".@+      ...",
".@$+        ",
" .$+        ",
" .$+        ",
" @.+        ",
" @.         ",
" @+.        "};
